<svg xmlns="http://www.w3.org/2000/svg" version="1.1" xmlns:xlink="http://www.w3.org/1999/xlink" xmlns:svgjs="http://svgjs.dev/svgjs" width="1440" height="560" preserveAspectRatio="none" viewBox="0 0 1440 560">
  <g mask="url(&quot;#SvgjsMask1001&quot;)" fill="none">
    <path d="M223,230.601C238.036,229.738,251.403,220.902,258.26,207.492C264.561,195.169,261.374,180.962,254.534,168.929C247.594,156.72,237.043,145.5,223,145.461C208.906,145.421,198.815,156.918,191.158,168.751C182.489,182.149,172.649,197.8,179.953,211.988C187.622,226.885,206.273,231.561,223,230.601" fill="rgba(28, 83, 142, 0.4)" class="triangle-float2"></path>
    <path d="M1132.035777134963 211.9917933308434L1057.4722004578273 289.2046372846649 1210.5732547271273 362.4435803234577z" fill="rgba(28, 83, 142, 0.4)" class="triangle-float3"></path>
    <path d="M305.4663272067849 149.01778527135474L400.4883475446411 139.03056849034482 337.9965122041981 1.4911463740655506z" fill="rgba(28, 83, 142, 0.4)" class="triangle-float1"></path>
    <path d="M250.93194502451124 155.35054896772087L195.8290334631713 31.26927033388253 124.40495281146744 126.05222670172462z" fill="rgba(28, 83, 142, 0.4)" class="triangle-float1"></path>
    <path d="M665.939,283.346C692.174,283.113,717.23,270.863,730.406,248.175C743.637,225.392,744.135,196.134,729.185,174.44C715.749,154.943,689.609,154.019,665.939,154.627C643.711,155.198,620.853,159.35,608.079,177.549C593.239,198.691,587.066,226.674,599.46,249.337C612.261,272.743,639.262,283.583,665.939,283.346" fill="rgba(28, 83, 142, 0.4)" class="triangle-float3"></path>
    <path d="M1042.644,546.108C1076.275,543.348,1102.887,520.11,1118.938,490.428C1134.122,462.351,1134.641,429.992,1121.057,401.107C1104.778,366.491,1080.786,331.111,1042.644,328.197C1000.549,324.981,961.345,350.692,940.316,387.3C919.365,423.771,918.281,469.67,941.063,505.026C962.267,537.933,1003.628,549.31,1042.644,546.108" fill="rgba(28, 83, 142, 0.4)" class="triangle-float1"></path>
    <path d="M1312.489161888338 524.786529310023L1381.215882295429 430.1923138884256 1286.6216668738316 361.4655934813345 1217.8949464667405 456.05980890293193z" fill="rgba(28, 83, 142, 0.4)" class="triangle-float2"></path>
    <path d="M267.00543587777696 81.58313043994555L141.56345886378938 220.63383457258175 301.0728550937231 257.45948034771726z" fill="rgba(28, 83, 142, 0.4)" class="triangle-float3"></path>
    <path d="M352.363,720.738C397.153,719.2,435.264,692.857,459.167,654.948C485.088,613.838,502.083,562.949,478.729,520.328C454.691,476.46,402.369,461.304,352.363,460.035C299.496,458.694,241.37,468.142,214.379,513.62C186.997,559.756,202.308,618.096,232.054,662.745C258.509,702.455,304.676,722.375,352.363,720.738" fill="rgba(28, 83, 142, 0.4)" class="triangle-float1"></path>
    <path d="M755.1987731885021 425.2864608830405L818.1972309667722 495.2533365065257 891.648315512865 365.77221202737803z" fill="rgba(28, 83, 142, 0.4)" class="triangle-float1"></path>
  </g>
  <defs>
    <mask id="SvgjsMask1001">
      <rect width="1440" height="560" fill="#ffffff"></rect>
    </mask>
    <style>
      @keyframes float1 {
        0% {
          transform: translate(0, 0)
        }

        50% {
          transform: translate(-10px, 0)
        }

        100% {
          transform: translate(0, 0)
        }
      }

      .triangle-float1 {
        animation: float1 5s infinite;
      }

      @keyframes float2 {
        0% {
          transform: translate(0, 0)
        }

        50% {
          transform: translate(-5px, -5px)
        }

        100% {
          transform: translate(0, 0)
        }
      }

      .triangle-float2 {
        animation: float2 4s infinite;
      }

      @keyframes float3 {
        0% {
          transform: translate(0, 0)
        }

        50% {
          transform: translate(0, -10px)
        }

        100% {
          transform: translate(0, 0)
        }
      }

      .triangle-float3 {
        animation: float3 6s infinite;
      }
    </style>
  </defs>
</svg>