<svg xmlns="http://www.w3.org/2000/svg" version="1.1" xmlns:xlink="http://www.w3.org/1999/xlink" xmlns:svgjs="http://svgjs.dev/svgjs" width="1560" height="560" preserveAspectRatio="none" viewBox="0 0 1560 560">
  <g mask="url(&quot;#SvgjsMask1017&quot;)" fill="none">
    <path d="M780 716.29C888.8 713.94 961.02 614.9 1039.66 539.66 1121.19 461.66 1232.74 392.81 1236.11 280 1239.51 165.86 1140.13 81.13 1055.57 4.43 976.45-67.34 886.69-128.17 780-133.75 667.73-139.59 554.75-104.2 474.14-25.86 392.5 53.49 347.55 166.37 354.39 280 360.88 387.92 433.37 473.73 508.88 551.12 585.72 629.86 670.01 718.67 780 716.29" fill="#1c538e"></path>
    <path d="M780 562.3C850.4 560.79 897.13 496.7 948.01 448.01 1000.77 397.55 1072.95 353 1075.13 280 1077.33 206.15 1013.02 151.32 958.31 101.69 907.12 55.25 849.04 15.89 780 12.28 707.36 8.5 634.25 31.4 582.09 82.09 529.27 133.44 500.18 206.48 504.6 280 508.81 349.83 555.71 405.36 604.57 455.43 654.29 506.38 708.83 563.84 780 562.3" fill="#2774c6"></path>
    <path d="M780 408.32C812 407.63 833.24 378.5 856.37 356.37 880.35 333.43 913.16 313.18 914.15 280 915.15 246.43 885.92 221.51 861.05 198.95 837.78 177.84 811.38 159.95 780 158.31 746.98 156.59 713.75 167 690.04 190.04 666.03 213.38 652.81 246.58 654.82 280 656.73 311.74 678.05 336.98 700.26 359.74 722.86 382.9 747.65 409.02 780 408.32" fill="#488fdb"></path>
  </g>
  <defs>
    <mask id="SvgjsMask1017">
      <rect width="1560" height="560" fill="#ffffff"></rect>
    </mask>
  </defs>
</svg>